<svg width="40" height="40" viewBox="0 0 40 40" fill="none" xmlns="http://www.w3.org/2000/svg">
<path d="M4.56853 35C2.03046 35 0 32.8912 0 30.2551C0 27.7245 2.03046 25.5102 4.467 25.5102H4.77157V25.1939C5.38071 17.9184 10.8629 11.9082 17.868 10.8537L18.5787 10.7483L17.9695 10.2211C17.1574 9.58843 16.6497 8.53401 16.6497 7.47959C16.6497 5.58163 18.1726 4 20 4C21.8274 4 23.3503 5.58163 23.3503 7.47959C23.3503 8.53401 22.8426 9.58843 22.0305 10.2211L21.4213 10.6429L22.132 10.7483C29.0355 11.8027 34.6193 17.8129 35.2284 25.0884V25.4048H35.533C37.9695 25.5102 40 27.619 40 30.1497C40 32.7857 37.9695 34.8946 35.4315 34.8946H4.56853V35ZM4.56853 27.619C3.24873 27.619 2.13198 28.7789 2.13198 30.1497C2.13198 31.5204 3.24873 32.6803 4.56853 32.6803H35.3299C36.6497 32.6803 37.7665 31.5204 37.7665 30.1497C37.7665 28.7789 36.6497 27.619 35.3299 27.619H4.56853ZM20 12.8571C13.2995 12.8571 7.61421 18.1293 6.90355 25.0884V25.4048H33.0964V25.0884C32.3858 18.1293 26.7005 12.8571 20 12.8571ZM20 6.21429C19.3909 6.21429 18.7817 6.7415 18.7817 7.47959C18.7817 8.21769 19.2893 8.7449 20 8.7449C20.7107 8.7449 21.2183 8.21769 21.2183 7.47959C21.2183 6.7415 20.6091 6.21429 20 6.21429Z" fill="white"/>
</svg>
