<svg width="80" height="80" viewBox="0 0 80 80" fill="none" xmlns="http://www.w3.org/2000/svg">
<g clip-path="url(#clip0)">
<path d="M40 0C25.943 0 14.2188 11.3234 14.2188 25.7812C14.2188 31.2816 15.8716 36.1863 19.0436 40.7822L38.027 70.4041C38.948 71.8441 41.0539 71.8412 41.973 70.4041L61.0387 40.6814C64.1425 36.2938 65.7812 31.1417 65.7812 25.7812C65.7812 11.5655 54.2158 0 40 0ZM40 37.5C33.5386 37.5 28.2812 32.2427 28.2812 25.7812C28.2812 19.3198 33.5386 14.0625 40 14.0625C46.4614 14.0625 51.7188 19.3198 51.7188 25.7812C51.7188 32.2427 46.4614 37.5 40 37.5Z" fill="#27AE60"/>
<path d="M58.3225 53.8594L46.5208 72.3105C43.4659 77.0733 36.517 77.0577 33.4769 72.315L21.6559 53.8642C11.2553 56.2689 4.84375 60.6741 4.84375 65.9383C4.84375 75.073 22.9575 80.0008 40 80.0008C57.0425 80.0008 75.1562 75.073 75.1562 65.9383C75.1562 60.6703 68.7358 56.2628 58.3225 53.8594Z" fill="#27AE60"/>
</g>
<defs>
<clipPath id="clip0">
<rect width="80" height="80" fill="white"/>
</clipPath>
</defs>
</svg>
