<svg width="62" height="80" viewBox="0 0 62 80" fill="none" xmlns="http://www.w3.org/2000/svg">
<path d="M43.6023 31.688C48.9064 26.8522 56.0792 20.312 56.733 4.6875H61.4688V0H0.53125V4.6875H5.26703C5.92078 20.312 13.0936 26.8522 18.3977 31.688C21.9556 34.9319 23.9688 36.9173 23.9688 40C23.9688 43.0827 21.9556 45.0681 18.3977 48.312C13.0936 53.1478 5.92078 59.688 5.26703 75.3125H0.53125V80H61.4688V75.3125H56.733C56.0792 59.688 48.9064 53.1478 43.6023 48.312C40.0444 45.0681 38.0312 43.0827 38.0312 40C38.0312 36.9173 40.0444 34.9319 43.6023 31.688ZM28.6562 57.5684C27.9323 57.7178 27.2172 57.9352 26.5192 58.2239L12.1634 64.1644C14.5078 58.2034 18.2838 54.7592 21.5558 51.7761C25.2073 48.4469 28.6562 45.3023 28.6562 40V57.5684ZM40.4442 51.7761C43.7162 54.7592 47.492 58.2034 49.8366 64.1642L35.4808 58.2237C34.7828 57.935 34.0677 57.7177 33.3438 57.5683V40C33.3438 45.3023 36.7927 48.4469 40.4442 51.7761ZM12.0811 15.625C10.9478 12.672 10.1652 9.10656 9.96031 4.6875H52.0395C51.8347 9.10656 51.0522 12.672 49.9187 15.625H12.0811Z" fill="#27AE60"/>
</svg>
