<svg width="80" height="80" viewBox="0 0 80 80" fill="none" xmlns="http://www.w3.org/2000/svg">
<g clip-path="url(#clip0)">
<path d="M33.1272 46.8732C25.4913 39.2373 23.7672 31.6015 23.3782 28.5422C23.2695 27.6963 23.5606 26.8479 24.1658 26.247L30.3451 20.0704C31.2541 19.162 31.4154 17.7463 30.7341 16.6566L20.8955 1.37941C20.1417 0.172854 18.594 -0.262603 17.3217 0.37389L1.52718 7.81251C0.498301 8.31914 -0.106875 9.41231 0.00994339 10.5532C0.83753 18.4153 4.26511 37.7422 23.2582 56.7366C42.2513 75.7311 61.5755 79.1573 69.4417 79.9849C70.5826 80.1017 71.6757 79.4966 72.1824 78.4677L79.621 62.6732C80.2551 61.4036 79.8225 59.8601 78.621 59.1049L63.3437 49.2691C62.2547 48.587 60.8391 48.7472 59.9299 49.6553L53.7534 55.8346C53.1524 56.4398 52.3041 56.7309 51.4582 56.6222C48.3989 56.2332 40.763 54.5091 33.1272 46.8732Z" fill="#27AE60"/>
<path d="M63.4486 42.7585C61.9251 42.7585 60.69 41.5234 60.69 39.9999C60.6771 28.5786 51.4215 19.3231 40.0003 19.3102C38.4768 19.3102 37.2417 18.0751 37.2417 16.5516C37.2417 15.028 38.4768 13.793 40.0003 13.793C54.4674 13.8089 66.1913 25.5328 66.2072 39.9999C66.2072 41.5234 64.9721 42.7585 63.4486 42.7585Z" fill="#27AE60"/>
<path d="M77.2417 42.7586C75.7182 42.7586 74.4831 41.5235 74.4831 40C74.4618 20.9645 59.0358 5.53853 40.0003 5.51724C38.4768 5.51724 37.2417 4.28217 37.2417 2.75862C37.2417 1.23508 38.4768 0 40.0003 0C62.0816 0.0243253 79.976 17.9187 80.0003 40C80.0003 40.7316 79.7097 41.4333 79.1923 41.9506C78.675 42.468 77.9733 42.7586 77.2417 42.7586Z" fill="#27AE60"/>
</g>
<defs>
<clipPath id="clip0">
<rect width="80" height="80" fill="white"/>
</clipPath>
</defs>
</svg>
