<svg width="80" height="80" viewBox="0 0 80 80" fill="none" xmlns="http://www.w3.org/2000/svg">
<path d="M3.19362 23.4165C2.534 23.6902 2.36561 24.5471 2.87262 25.0501L7.18143 29.3243C7.81255 29.9503 8.88568 29.5033 8.88568 28.6143V22.5523C8.88568 21.8393 8.16094 21.3554 7.50244 21.6286L3.19362 23.4165Z" fill="#27AE60"/>
<path d="M77.1273 25.0501C77.6343 24.5471 77.4659 23.6902 76.8063 23.4165L72.4975 21.6286C71.839 21.3554 71.1143 21.8393 71.1143 22.5523V28.6143C71.1143 29.5033 72.1874 29.9503 72.8185 29.3243L77.1273 25.0501Z" fill="#27AE60"/>
<path d="M66.4268 5.03031C66.4267 5.03031 66.4267 5.03028 66.4267 5.03024C66.4266 3.41324 65.1112 2.09766 63.4942 2.09766H16.5057C14.8887 2.09766 13.5732 3.41328 13.5732 5.03031V35.2458C13.5732 35.5124 13.6797 35.768 13.869 35.9557L28.1586 50.1308C28.5269 50.4961 29.1135 50.5191 29.5093 50.1838L38.485 42.5794C39.3592 41.8388 40.6409 41.8388 41.5151 42.5794L50.4908 50.1838C50.8866 50.5191 51.4731 50.4961 51.8414 50.1308L66.1311 35.9557C66.3204 35.768 66.4268 35.5124 66.4268 35.2458V5.03039C66.4268 5.03035 66.4268 5.03031 66.4268 5.03031ZM53.0514 30.8153H26.9486C25.6542 30.8153 24.6048 29.7659 24.6048 28.4716C24.6048 27.1772 25.6542 26.1278 26.9486 26.1278H53.0514C54.3457 26.1278 55.3951 27.1772 55.3951 28.4716C55.3951 29.7659 54.3457 30.8153 53.0514 30.8153ZM53.0514 18.2434H26.9486C25.6542 18.2434 24.6048 17.1941 24.6048 15.8997C24.6048 14.6053 25.6542 13.5559 26.9486 13.5559H53.0514C54.3457 13.5559 55.3951 14.6053 55.3951 15.8997C55.3951 17.1941 54.3457 18.2434 53.0514 18.2434Z" fill="#27AE60"/>
<path d="M1.70426 30.4914C1.07314 29.8653 0 30.3124 0 31.2013V73.0274C0 73.8791 0.996627 74.3409 1.64642 73.7904L24.3877 54.5232C24.8351 54.1442 24.8618 53.4633 24.4455 53.0503L1.70426 30.4914Z" fill="#27AE60"/>
<path d="M55.5545 53.0503C55.1382 53.4633 55.1649 54.1442 55.6123 54.5232L78.3535 73.7904C79.0033 74.3409 80 73.8791 80 73.0274V31.2013C80 30.3124 78.9268 29.8653 78.2957 30.4914L55.5545 53.0503Z" fill="#27AE60"/>
<path d="M40.6463 47.9891C40.2733 47.673 39.7265 47.673 39.3535 47.9891L6.12922 76.1376C5.41869 76.7396 5.84439 77.9006 6.77564 77.9006H73.2242C74.1554 77.9006 74.5811 76.7396 73.8706 76.1376L40.6463 47.9891Z" fill="#27AE60"/>
</svg>
