<svg width="40" height="40" viewBox="0 0 40 40" fill="none" xmlns="http://www.w3.org/2000/svg">
<g clip-path="url(#clip0)">
<path d="M38.8 0H1.2C0.5 0 0 0.5 0 1.2V38.9C0 39.5 0.5 40 1.2 40H38.9C39.5 40 40.1 39.5 40.1 38.8V1.2C40 0.5 39.5 0 38.8 0ZM37.7 37.7H2.3V2.3H37.6V37.7H37.7Z" fill="white"/>
<path d="M11.1998 33.4C10.6998 33.4 10.2998 33 10.2998 32.5V7.4C10.2998 6.9 10.6998 6.5 11.1998 6.5H22.4998C27.7998 6.5 32.1998 10.8 32.1998 16.2C32.1998 21.6 27.8998 25.9 22.4998 25.9H17.0998V32.6C17.0998 33.1 16.6998 33.5 16.1998 33.5H11.1998V33.4ZM12.0998 31.7H15.3998V25C15.3998 24.5 15.7998 24.1 16.2998 24.1H22.5998C26.9998 24.1 30.4998 20.5 30.4998 16.2C30.4998 11.9 26.9998 8.3 22.5998 8.3H12.0998V31.7Z" fill="white"/>
<path d="M16.1998 20.8996C15.6998 20.8996 15.2998 20.4996 15.2998 19.9996V12.4996C15.2998 11.9996 15.6998 11.5996 16.1998 11.5996H22.4998C25.0998 11.5996 27.0998 13.6996 27.0998 16.1996C27.0998 18.6996 24.9998 20.7996 22.4998 20.7996H16.1998V20.8996ZM17.0998 19.0996H22.4998C24.0998 19.0996 25.3998 17.7996 25.3998 16.1996C25.3998 14.5996 24.0998 13.2996 22.4998 13.2996H17.0998V19.0996Z" fill="white"/>
</g>
<defs>
<clipPath id="clip0">
<rect width="40" height="40" fill="white"/>
</clipPath>
</defs>
</svg>
