<svg width="40" height="40" viewBox="0 0 40 40" fill="none" xmlns="http://www.w3.org/2000/svg">
<path fill-rule="evenodd" clip-rule="evenodd" d="M0 20C0 8.9543 8.9543 0 20 0C31.0457 0 40 8.9543 40 20C40 31.0457 31.0457 40 20 40C8.9543 40 0 31.0457 0 20ZM19.9864 20.3211C22.9356 20.3211 25.333 18.0066 25.333 15.1613C25.333 12.3151 22.9356 10 19.9864 10C17.0378 10 14.6398 12.3151 14.6398 15.1613C14.6398 18.0066 17.0378 20.3211 19.9864 20.3211ZM22.1633 24.5336C23.2516 24.2943 24.3012 23.8786 25.268 23.2925C25.9996 22.8472 26.22 21.9137 25.7591 21.2075C25.2984 20.4997 24.3319 20.2866 23.599 20.7319C21.409 22.0613 18.5893 22.061 16.4005 20.7319C15.6676 20.2866 14.7008 20.4997 14.2411 21.2075C13.7801 21.9143 13.9999 22.8472 14.7315 23.2925C15.6983 23.878 16.7479 24.2943 17.8362 24.5336L14.847 27.419C14.236 28.0095 14.236 28.9667 14.8477 29.5572C15.1538 29.8521 15.5543 29.9997 15.9549 29.9997C16.356 29.9997 16.7572 29.8521 17.0633 29.5572L19.9995 26.7218L22.9381 29.5572C23.5491 30.1476 24.5405 30.1476 25.1522 29.5572C25.7645 28.9667 25.7645 28.0088 25.1522 27.419L22.1633 24.5336Z" fill="white"/>
<path fill-rule="evenodd" clip-rule="evenodd" d="M19.9864 13.0247C21.2072 13.0247 22.2002 13.9829 22.2002 15.1613C22.2002 16.3388 21.2072 17.2976 19.9864 17.2976C18.7666 17.2976 17.7727 16.3388 17.7727 15.1613C17.7727 13.9829 18.7666 13.0247 19.9864 13.0247Z" fill="white"/>
</svg>
