<svg width="107" height="73" viewBox="0 0 107 73" fill="none" xmlns="http://www.w3.org/2000/svg">
<path d="M80.7001 73C75.0001 73 70.0001 69.1 68.5001 63.6L68.3001 62.9H46.5001L46.3001 63.6C44.8001 69.1 39.8001 73 34.1001 73C28.4001 73 23.4001 69.1 21.9001 63.6L21.7001 62.9H12.0001C10.7001 62.9 9.6001 61.8 9.6001 60.5C9.6001 59.2 10.7001 58.1 12.0001 58.1H21.6001L21.8001 57.3C23.2001 51.7 28.2001 47.7 34.0001 47.7C39.8001 47.7 44.8001 51.6 46.2001 57.3L46.4001 58.1H68.1001L68.3001 57.3C69.7001 51.7 74.7001 47.7 80.5001 47.7C86.3001 47.7 91.3001 51.6 92.7001 57.3L92.9001 58.1H101.1V39.1L95.6001 32H68.6001C67.3001 32 66.2001 30.9 66.2001 29.6V4.8H12.1001C10.8001 4.8 9.7001 3.7 9.7001 2.4C9.7001 1.1 10.8001 0 12.1001 0H68.9001C70.2001 0 71.3001 1.1 71.3001 2.4V6.8H86.8001C87.7001 6.8 88.5001 7.3 89.0001 8.1L98.8001 27.5L99.0001 28L99.4001 28.7L105.8 36.9C106.1 37.3 106.3 37.8 106.3 38.4V60.6C106.3 61.9 105.2 63 103.9 63H93.1001L92.9001 63.7C91.4001 69.1 86.4001 73 80.7001 73ZM80.7001 52.5C76.4001 52.5 72.9001 56 72.9001 60.3C72.9001 64.6 76.4001 68.1 80.7001 68.1C85.0001 68.1 88.5001 64.6 88.5001 60.3C88.5001 56 85.0001 52.5 80.7001 52.5ZM34.1001 52.5C29.8001 52.5 26.3001 56 26.3001 60.3C26.3001 64.6 29.8001 68.1 34.1001 68.1C38.4001 68.1 41.9001 64.6 41.9001 60.3C41.9001 56 38.4001 52.5 34.1001 52.5ZM71.3001 27.3H93.2001L85.3001 11.7H71.3001V27.3Z" fill="white"/>
<path d="M8.0001 45.5998C6.7001 45.5998 5.6001 44.4998 5.6001 43.1998C5.6001 41.8998 6.7001 40.7998 8.0001 40.7998H23.7001C24.3001 40.7998 24.9001 41.0998 25.4001 41.4998C25.9001 41.9998 26.1001 42.5998 26.1001 43.1998C26.1001 44.4998 25.0001 45.5998 23.7001 45.5998H8.0001Z" fill="white"/>
<path d="M2.4 32.1999C1.1 32.1999 0 31.0999 0 29.7999C0 28.4999 1.1 27.3999 2.4 27.3999H31.5C32.8 27.3999 33.9 28.4999 33.9 29.7999C33.9 31.0999 32.8 32.1999 31.5 32.1999H2.4Z" fill="white"/>
<path d="M8.0001 18.8C6.7001 18.8 5.6001 17.7 5.6001 16.4C5.6001 15.1 6.6001 14 8.0001 14H37.1001C37.7001 14 38.3001 14.3 38.8001 14.7C39.3001 15.2 39.5001 15.8 39.5001 16.4C39.5001 17.7 38.4001 18.8 37.1001 18.8H8.0001Z" fill="white"/>
</svg>
