<svg width="40" height="40" viewBox="0 0 40 40" fill="none" xmlns="http://www.w3.org/2000/svg">
<path fill-rule="evenodd" clip-rule="evenodd" d="M0 20C0 8.9543 8.9543 0 20 0C31.0457 0 40 8.9543 40 20C40 31.0457 31.0457 40 20 40C8.9543 40 0 31.0457 0 20ZM21.0462 26.5635C21.0462 26.5635 21.4312 26.5215 21.6284 26.3136C21.809 26.1231 21.8027 25.7636 21.8027 25.7636C21.8027 25.7636 21.7787 24.0849 22.5727 23.837C23.3553 23.5933 24.3601 25.4604 25.4265 26.1784C26.232 26.7212 26.8434 26.6024 26.8434 26.6024L29.693 26.5635C29.693 26.5635 31.183 26.4733 30.4766 25.3231C30.4182 25.2289 30.0644 24.472 28.3585 22.9173C26.5711 21.2898 26.8111 21.553 28.9626 18.7375C30.2731 17.0229 30.7969 15.9762 30.6331 15.5286C30.4776 15.1005 29.5135 15.2142 29.5135 15.2142L26.3061 15.2336C26.3061 15.2336 26.0682 15.2019 25.8918 15.3053C25.7197 15.4067 25.608 15.6433 25.608 15.6433C25.608 15.6433 25.1009 16.9697 24.4237 18.0984C22.9953 20.4786 22.4246 20.6046 22.1908 20.4571C21.6472 20.112 21.7829 19.0724 21.7829 18.3339C21.7829 16.0264 22.1397 15.0646 21.089 14.8158C20.7405 14.7328 20.4838 14.6785 19.5917 14.6693C18.4471 14.658 17.4788 14.6734 16.9299 14.9366C16.5648 15.1118 16.283 15.503 16.4552 15.5255C16.667 15.5532 17.147 15.6525 17.4016 15.9926C17.7302 16.432 17.7188 17.4173 17.7188 17.4173C17.7188 17.4173 17.9076 20.1335 17.2774 20.4704C16.8454 20.7019 16.2528 20.2297 14.9788 18.0697C14.3266 16.9635 13.8341 15.7406 13.8341 15.7406C13.8341 15.7406 13.7392 15.5122 13.5691 15.3893C13.3636 15.2408 13.0766 15.1947 13.0766 15.1947L10.0288 15.2142C10.0288 15.2142 9.57075 15.2265 9.40276 15.4221C9.25355 15.5952 9.39128 15.9547 9.39128 15.9547C9.39128 15.9547 11.7776 21.4352 14.48 24.1975C16.9581 26.7294 19.7712 26.5635 19.7712 26.5635H21.0462Z" fill="#27AE60"/>
</svg>
