<svg width="68" height="68" viewBox="0 0 68 68" fill="none" xmlns="http://www.w3.org/2000/svg">
<path d="M30.6667 43.9994H37.3334V50.666H30.6667V43.9994ZM30.6667 17.3327H37.3334V37.3327H30.6667V17.3327ZM33.9667 0.666016C15.5667 0.666016 0.666748 15.5993 0.666748 33.9994C0.666748 52.3994 15.5667 67.3327 33.9667 67.3327C52.4001 67.3327 67.3334 52.3994 67.3334 33.9994C67.3334 15.5993 52.4001 0.666016 33.9667 0.666016ZM34.0001 60.666C19.2667 60.666 7.33342 48.7327 7.33342 33.9994C7.33342 19.266 19.2667 7.33268 34.0001 7.33268C48.7334 7.33268 60.6668 19.266 60.6668 33.9994C60.6668 48.7327 48.7334 60.666 34.0001 60.666Z" fill="#828282"/>
</svg>
