<svg width="31" height="26" viewBox="0 0 31 26" fill="none" xmlns="http://www.w3.org/2000/svg">
<path d="M10.8449 3.53416C11.3312 3.53416 11.7254 3.13992 11.7254 2.65363V0.880532C11.7254 0.394244 11.3312 0 10.8449 0C10.3586 0 9.96436 0.394244 9.96436 0.880532V2.65363C9.96436 3.13992 10.3586 3.53416 10.8449 3.53416Z" fill="#EAC139"/>
<path d="M2.85651 6.75719L1.32092 5.87061C0.899732 5.62734 0.361199 5.77175 0.118113 6.19288C-0.125031 6.61407 0.0192587 7.1526 0.440388 7.39569L1.97598 8.28227C2.39617 8.52494 2.93511 8.38212 3.17878 7.95999C3.42193 7.5388 3.27764 7.00027 2.85651 6.75719Z" fill="#EAC139"/>
<path d="M1.97579 16.4898L0.440203 17.3763C-0.337014 17.825 -0.0179091 19.0195 0.88129 19.0195C1.28029 19.0195 1.38108 18.8267 2.85627 18.0149C3.2774 17.7717 3.42169 17.2332 3.17854 16.812C2.93546 16.3909 2.39704 16.2465 1.97579 16.4898Z" fill="#EAC139"/>
<path d="M19.7135 8.28227L21.2491 7.39569C21.6702 7.15254 21.8145 6.61407 21.5714 6.19288C21.3282 5.77175 20.7898 5.62734 20.3686 5.87061L18.833 6.75719C18.4118 7.00033 18.2675 7.5388 18.5107 7.95999C18.7551 8.38324 19.2944 8.52435 19.7135 8.28227Z" fill="#EAC139"/>
<path d="M9.06531 14.6154C9.71884 11.035 12.6035 8.2924 16.2044 7.82008C14.9114 6.30457 12.9887 5.3418 10.845 5.3418C6.96078 5.3418 3.80078 8.50185 3.80078 12.3861C3.80078 14.2412 4.52194 15.9308 5.69827 17.1901C6.51264 15.995 7.7013 15.083 9.06531 14.6154Z" fill="#EAC139"/>
<path d="M23.4166 13.636C22.4195 11.172 20.0029 9.50952 17.2937 9.50952C13.6612 9.50952 10.7289 12.4368 10.6905 16.0464C8.18953 16.3207 6.28711 18.4652 6.28711 20.9812C6.28711 23.7188 8.51433 25.9461 11.2519 25.9461C25.1063 25.9316 24.3482 25.9815 24.5895 25.9066C27.6671 25.5596 30.0555 22.9493 30.0555 19.7825C30.0555 16.166 26.9653 13.358 23.4166 13.636Z" fill="white"/>
</svg>
