<svg width="40" height="40" viewBox="0 0 40 40" fill="none" xmlns="http://www.w3.org/2000/svg">
<path d="M34.1 5.9C30.4 2.1 25.3 0 20 0C14.7 0 9.6 2.1 5.9 5.9C2.1 9.6 0 14.7 0 20C0 25.3 2.1 30.4 5.9 34.1C9.6 37.9 14.7 40 20 40C25.3 40 30.4 37.9 34.1 34.1C37.9 30.4 40 25.3 40 20C40 14.7 37.9 9.6 34.1 5.9ZM32.5 32.5C29.2 35.8 24.7 37.7 20 37.7C15.3 37.7 10.8 35.9 7.5 32.5C4.2 29.2 2.3 24.7 2.3 20C2.3 15.3 4.1 10.8 7.5 7.5C10.8 4.2 15.3 2.3 20 2.3C24.7 2.3 29.2 4.1 32.5 7.5C35.8 10.8 37.7 15.3 37.7 20C37.7 24.7 35.8 29.2 32.5 32.5Z" fill="white"/>
<path d="M19.9999 5.8999C12.1999 5.8999 5.8999 12.1999 5.8999 19.9999C5.8999 27.7999 12.1999 34.0999 19.9999 34.0999C27.7999 34.0999 34.0999 27.7999 34.0999 19.9999C34.0999 12.1999 27.7999 5.8999 19.9999 5.8999ZM19.9999 31.9999C13.3999 31.9999 7.9999 26.5999 7.9999 19.9999C7.9999 13.3999 13.3999 7.9999 19.9999 7.9999C26.5999 7.9999 31.9999 13.3999 31.9999 19.9999C31.9999 26.5999 26.5999 31.9999 19.9999 31.9999Z" fill="white"/>
<path d="M25.4998 19.2999H20.9998V11.9999C20.9998 11.3999 20.4998 10.8999 19.8998 10.8999C19.2998 10.8999 18.7998 11.3999 18.7998 11.9999V20.2999C18.7998 20.4999 18.7998 20.6999 18.8998 20.7999C19.0998 21.0999 19.3998 21.3999 19.7998 21.3999H25.2998C25.8998 21.3999 26.3998 20.8999 26.3998 20.2999C26.5998 19.7999 26.0998 19.2999 25.4998 19.2999Z" fill="white"/>
</svg>
